<svg version="1.2" xmlns="http://www.w3.org/2000/svg" viewBox="0 0 1920 579" width="1920" height="579">
	<title>City</title>
	<style>
		.s0 { fill: #20388b } 
	</style>
	<path id="Layer" class="s0" d="m1919.7 421.1v157.4h-1919.7v-143.3h6.4v-1.9h3.7v1.9h2.6v-4.1h8.6v4.1h5v-71.7h3.8l1.2-1.2v-2.6h7.1l1.7-1.7v-4.9h2.8v-4.1h18.2l4.2 2.1v13.2h1.6v6.7h1.8v10.7h3.5v44.2h4.5v2h17v-75.2h8.9v-3.1h1.9v-5.2h18.3v4.7h9.5v10.4h5.2v14.2h3.7v56.5h8.6v-2.9h19.4v-48.8h6.1v-6.9h18.4v5.2h19v2.7h5.8v7.5h4.1v3.3h3.2v16.8l11.2 4.8v6.1h9.5v38.5h13.2l2.3 2.3h1.6v-58.1h2.4v-3.8h8.2v-3.9h13.9v-1.9h7.7l3.2 3.2v1.5h12.1v18.3h24.4c15.8-6.7 34.9-10.6 55.4-10.6 27.1 0 51.7 6.9 69.6 18h2.5v-32.2h10.1l10.7 2.7v2.9h1.6v3.1h2.8v-22.5h1.8v-5.6l1.7 1.7h4.5v-1.7h23v6.5h2.6v21.7h10.3l11.4 11.4h14.2v10.8h1.8v-54.8l16.4 16.4v21.6h4q5.5-104.4 5.9-206.8c-4.5-0.4-8.4-1.1-10.4-2.6h-1.1c-1.5-2.5-1.1-4.8 1.4-7l-3.2-3.5c0.4-2.4 0.2-4.7-0.3-7-0.1-0.6 0-1.3 0.3-1.8 0.2-0.6 0.7-1 1.3-1.3l1.1-0.4v-0.3c-0.1-0.6 0.2-1.2 0.6-1.6 0.4-0.4 1-0.7 1.6-0.7h0.1l1.5-2.4h-0.7v-5q3.8-0.5 7.8-0.7v-5.5h-0.8v-6.5h2.8v-52.5c-1.9-1.4-2.9-2.8-2.5-4.4q0.3-1.1 1.1-1.9 0.8-0.9 1.8-1.3v-36l1.3-1.3 0.3-11.6 1-0.6-0.8-1.2 0.3-15.4 0.4-0.3v-14.6l0.4-0.4v-8.9h2.2v8.9l0.4 0.4v14.6l0.3 0.3 0.4 15.4-0.8 1.2 1 0.6 0.3 11.6 1.3 1.3v36q1 0.4 1.8 1.3 0.8 0.8 1.1 1.9c0.4 1.6-0.6 3-2.5 4.4v52.5h2.8v6.5h-0.8v5.5c2.7 0.1 5.3 0.3 7.8 0.7v5h-0.8l1.6 2.4h0.1c0.6 0 1.1 0.3 1.6 0.7 0.4 0.4 0.6 1 0.6 1.6v0.3l1.1 0.4c0.6 0.3 1 0.7 1.3 1.3 0.3 0.5 0.4 1.2 0.3 1.8-0.6 2.3-0.7 4.6-0.4 7l-3.1 3.5c2.5 2.2 2.9 4.5 1.4 7h-1.2c-1.9 1.5-5.8 2.2-10.3 2.6q0.2 102.4 5.9 206.8l0.4 5.8h9.2v-21.6h3.3v-2.6h15.3l13.8 13.8h14.8v-22h5.7v-1.9h4.2v-1.8h6.6v-4.9h10.1v-4.9h19v18.5l7.1-7.1h10.7v-8.1h10.4v-38.6l15.1-15h26.3v44.7h11.8v-14.1h8v-3.3h11.4v-53.5h3.8v-5.5h27.3v5.7h2.4v2h2.1v44.9h5v-6.9l10 10v3.2h6.3v-83.9h3.5v-2.1h22.1v3.2h4.4v110.6h5.8v-46.3l8.5-8.5h54.8v24.1h3.3v2.8h10.3v-24h3.8v-7.2h5.7v-47h1.5v-7.1h1.5v-5.2h19.9l7.4 7.3v7.2l2.8 2.8v90.7h3.6v9.4h4.3v-125l9.3-0.1v-3.9h16.3l6.7 6.7v4.6l1.6 1.5v110h22.6v3h30.6v-2.8h9.3v2.4h1.8v-10.7h9.9v-18.8h33.2v-36.3h23.6v-28.8l15.8-15.8h29v63.6l13.2 13.2v-13.5h3.7v-3.9h7.1v-4h10.8l3 3h7.3v-5.6h4.5v-10.6h4.2v-10.8h6.3v-2.9l1.7-1.6v-17.2l2.7-2.8 2.9 2.9v17.1l1.8 1.7v3.1h6.5v1.8h18.4l7.6 7.6v55.2h5.1v-43.9h4.9v-43h21.8l14.7 14.7v31.6l1.5 1.6v8.6l4 3.9v7.3l2.4 2.4v9.7h16.5l1.7-1.6h12.9l1.9 1.9h5.4v30.9h6.6v-77.1h9.1l22.5 22.5v57.6h4.3v4.7h2.3v-48.8l2.5-2.5v-9.4h7.9l9.1 9.1v42.6h2.9v15.8h2.6v5.8h5.2v-44.3l3.5-3.5v-11.3h19.2v55h2.6v4.1h18.4v-2.8h3.5v-34h16.1v37.5h4.3v33.7h15.4v-3.8h4v-18.6h16.6v12.3h5.6v-15.4h6.5v-16.3h9.3v41.8h37.8v-48.5h4.7v-6.8h18.7v55.3h8.2v5.8h13.2v-11.6h31.4v9h10.5v-33.2h13.5l17.5 17.5v25.7h21.2v-76.7l11.9-11.9h8.5v54.1h9.2v7.1h20.3v-15h16.9v-7.7h4.7v-8.2h18.5v5.6h6.6v24h3.9l5.7 5.7v2.7z"/>
</svg>